<mxfile host="Electron" agent="Mozilla/5.0 (Windows NT 10.0; Win64; x64) AppleWebKit/537.36 (KHTML, like Gecko) draw.io/24.7.17 Chrome/128.0.6613.36 Electron/32.0.1 Safari/537.36" version="24.7.17">
  <diagram name="Page-1" id="2YBvvXClWsGukQMizWep">
    <mxGraphModel dx="1687" dy="1005" grid="1" gridSize="10" guides="1" tooltips="1" connect="1" arrows="1" fold="1" page="1" pageScale="1" pageWidth="850" pageHeight="1100" math="0" shadow="0">
      <root>
        <mxCell id="0" />
        <mxCell id="1" parent="0" />
        <mxCell id="aM9ryv3xv72pqoxQDRHE-1" value="User" style="shape=umlLifeline;perimeter=lifelinePerimeter;whiteSpace=wrap;html=1;container=0;dropTarget=0;collapsible=0;recursiveResize=0;outlineConnect=0;portConstraint=eastwest;newEdgeStyle={&quot;edgeStyle&quot;:&quot;elbowEdgeStyle&quot;,&quot;elbow&quot;:&quot;vertical&quot;,&quot;curved&quot;:0,&quot;rounded&quot;:0};fontSize=16;" parent="1" vertex="1">
          <mxGeometry x="40" y="40" width="100" height="1010" as="geometry" />
        </mxCell>
        <mxCell id="aM9ryv3xv72pqoxQDRHE-2" value="" style="html=1;points=[];perimeter=orthogonalPerimeter;outlineConnect=0;targetShapes=umlLifeline;portConstraint=eastwest;newEdgeStyle={&quot;edgeStyle&quot;:&quot;elbowEdgeStyle&quot;,&quot;elbow&quot;:&quot;vertical&quot;,&quot;curved&quot;:0,&quot;rounded&quot;:0};fontSize=16;" parent="aM9ryv3xv72pqoxQDRHE-1" vertex="1">
          <mxGeometry x="45" y="70" width="10" height="930" as="geometry" />
        </mxCell>
        <mxCell id="HNpfUJ7Xd9dGnBa2fply-49" value="" style="html=1;points=[];perimeter=orthogonalPerimeter;outlineConnect=0;targetShapes=umlLifeline;portConstraint=eastwest;newEdgeStyle={&quot;edgeStyle&quot;:&quot;elbowEdgeStyle&quot;,&quot;elbow&quot;:&quot;vertical&quot;,&quot;curved&quot;:0,&quot;rounded&quot;:0};fontSize=16;" vertex="1" parent="aM9ryv3xv72pqoxQDRHE-1">
          <mxGeometry x="50" y="530" width="10" height="50" as="geometry" />
        </mxCell>
        <mxCell id="HNpfUJ7Xd9dGnBa2fply-50" value="" style="curved=1;endArrow=classic;html=1;rounded=0;" edge="1" parent="aM9ryv3xv72pqoxQDRHE-1" source="aM9ryv3xv72pqoxQDRHE-2" target="HNpfUJ7Xd9dGnBa2fply-49">
          <mxGeometry width="50" height="50" relative="1" as="geometry">
            <mxPoint x="57.5" y="490" as="sourcePoint" />
            <mxPoint x="62.5" y="530" as="targetPoint" />
            <Array as="points">
              <mxPoint x="80" y="490" />
              <mxPoint x="80" y="530" />
            </Array>
          </mxGeometry>
        </mxCell>
        <mxCell id="HNpfUJ7Xd9dGnBa2fply-51" value="&lt;span style=&quot;font-size: 16px;&quot;&gt;Выбор товара&lt;/span&gt;&lt;div&gt;&lt;span style=&quot;font-size: 16px;&quot;&gt;из списка&lt;/span&gt;&lt;/div&gt;" style="edgeLabel;html=1;align=center;verticalAlign=middle;resizable=0;points=[];" vertex="1" connectable="0" parent="HNpfUJ7Xd9dGnBa2fply-50">
          <mxGeometry x="-0.009" y="-1" relative="1" as="geometry">
            <mxPoint x="61" y="3" as="offset" />
          </mxGeometry>
        </mxCell>
        <mxCell id="aM9ryv3xv72pqoxQDRHE-5" value="Frontend" style="shape=umlLifeline;perimeter=lifelinePerimeter;whiteSpace=wrap;html=1;container=0;dropTarget=0;collapsible=0;recursiveResize=0;outlineConnect=0;portConstraint=eastwest;newEdgeStyle={&quot;edgeStyle&quot;:&quot;elbowEdgeStyle&quot;,&quot;elbow&quot;:&quot;vertical&quot;,&quot;curved&quot;:0,&quot;rounded&quot;:0};fontSize=16;" parent="1" vertex="1">
          <mxGeometry x="240" y="40" width="100" height="1010" as="geometry" />
        </mxCell>
        <mxCell id="aM9ryv3xv72pqoxQDRHE-6" value="" style="html=1;points=[];perimeter=orthogonalPerimeter;outlineConnect=0;targetShapes=umlLifeline;portConstraint=eastwest;newEdgeStyle={&quot;edgeStyle&quot;:&quot;elbowEdgeStyle&quot;,&quot;elbow&quot;:&quot;vertical&quot;,&quot;curved&quot;:0,&quot;rounded&quot;:0};fontSize=16;" parent="aM9ryv3xv72pqoxQDRHE-5" vertex="1">
          <mxGeometry x="45" y="80" width="10" height="890" as="geometry" />
        </mxCell>
        <mxCell id="HNpfUJ7Xd9dGnBa2fply-23" value="" style="html=1;points=[];perimeter=orthogonalPerimeter;outlineConnect=0;targetShapes=umlLifeline;portConstraint=eastwest;newEdgeStyle={&quot;edgeStyle&quot;:&quot;elbowEdgeStyle&quot;,&quot;elbow&quot;:&quot;vertical&quot;,&quot;curved&quot;:0,&quot;rounded&quot;:0};fontSize=16;" vertex="1" parent="aM9ryv3xv72pqoxQDRHE-5">
          <mxGeometry x="50" y="120" width="10" height="30" as="geometry" />
        </mxCell>
        <mxCell id="HNpfUJ7Xd9dGnBa2fply-26" value="" style="curved=1;endArrow=classic;html=1;rounded=0;" edge="1" parent="aM9ryv3xv72pqoxQDRHE-5" source="aM9ryv3xv72pqoxQDRHE-6" target="HNpfUJ7Xd9dGnBa2fply-23">
          <mxGeometry width="50" height="50" relative="1" as="geometry">
            <mxPoint x="60" y="80" as="sourcePoint" />
            <mxPoint x="110" y="30" as="targetPoint" />
            <Array as="points">
              <mxPoint x="80" y="80" />
              <mxPoint x="80" y="120" />
            </Array>
          </mxGeometry>
        </mxCell>
        <mxCell id="HNpfUJ7Xd9dGnBa2fply-27" value="&lt;font style=&quot;font-size: 16px;&quot;&gt;Генерация&lt;/font&gt;&lt;div style=&quot;font-size: 16px;&quot;&gt;&lt;font style=&quot;font-size: 16px;&quot;&gt;запроса к серверу&lt;/font&gt;&lt;/div&gt;" style="edgeLabel;html=1;align=center;verticalAlign=middle;resizable=0;points=[];" vertex="1" connectable="0" parent="HNpfUJ7Xd9dGnBa2fply-26">
          <mxGeometry x="-0.009" y="-1" relative="1" as="geometry">
            <mxPoint x="81" as="offset" />
          </mxGeometry>
        </mxCell>
        <mxCell id="HNpfUJ7Xd9dGnBa2fply-43" value="" style="html=1;points=[];perimeter=orthogonalPerimeter;outlineConnect=0;targetShapes=umlLifeline;portConstraint=eastwest;newEdgeStyle={&quot;edgeStyle&quot;:&quot;elbowEdgeStyle&quot;,&quot;elbow&quot;:&quot;vertical&quot;,&quot;curved&quot;:0,&quot;rounded&quot;:0};fontSize=16;" vertex="1" parent="aM9ryv3xv72pqoxQDRHE-5">
          <mxGeometry x="50" y="440" width="10" height="30" as="geometry" />
        </mxCell>
        <mxCell id="HNpfUJ7Xd9dGnBa2fply-45" value="" style="curved=1;endArrow=classic;html=1;rounded=0;" edge="1" parent="aM9ryv3xv72pqoxQDRHE-5" source="aM9ryv3xv72pqoxQDRHE-6" target="HNpfUJ7Xd9dGnBa2fply-43">
          <mxGeometry width="50" height="50" relative="1" as="geometry">
            <mxPoint x="60" y="400" as="sourcePoint" />
            <mxPoint x="65" y="440" as="targetPoint" />
            <Array as="points">
              <mxPoint x="80" y="400" />
              <mxPoint x="80" y="440" />
            </Array>
          </mxGeometry>
        </mxCell>
        <mxCell id="HNpfUJ7Xd9dGnBa2fply-46" value="&lt;span style=&quot;font-size: 16px;&quot;&gt;Отрисовка&lt;/span&gt;&lt;br&gt;&lt;div style=&quot;font-size: 16px;&quot;&gt;страницы-результата&lt;/div&gt;" style="edgeLabel;html=1;align=center;verticalAlign=middle;resizable=0;points=[];" vertex="1" connectable="0" parent="HNpfUJ7Xd9dGnBa2fply-45">
          <mxGeometry x="-0.009" y="-1" relative="1" as="geometry">
            <mxPoint x="81" y="3" as="offset" />
          </mxGeometry>
        </mxCell>
        <mxCell id="HNpfUJ7Xd9dGnBa2fply-53" value="" style="html=1;points=[];perimeter=orthogonalPerimeter;outlineConnect=0;targetShapes=umlLifeline;portConstraint=eastwest;newEdgeStyle={&quot;edgeStyle&quot;:&quot;elbowEdgeStyle&quot;,&quot;elbow&quot;:&quot;vertical&quot;,&quot;curved&quot;:0,&quot;rounded&quot;:0};fontSize=16;" vertex="1" parent="aM9ryv3xv72pqoxQDRHE-5">
          <mxGeometry x="50" y="620" width="10" height="30" as="geometry" />
        </mxCell>
        <mxCell id="HNpfUJ7Xd9dGnBa2fply-54" value="" style="curved=1;endArrow=classic;html=1;rounded=0;" edge="1" parent="aM9ryv3xv72pqoxQDRHE-5" target="HNpfUJ7Xd9dGnBa2fply-53" source="aM9ryv3xv72pqoxQDRHE-6">
          <mxGeometry width="50" height="50" relative="1" as="geometry">
            <mxPoint x="55" y="580" as="sourcePoint" />
            <mxPoint x="110" y="530" as="targetPoint" />
            <Array as="points">
              <mxPoint x="80" y="580" />
              <mxPoint x="80" y="620" />
            </Array>
          </mxGeometry>
        </mxCell>
        <mxCell id="HNpfUJ7Xd9dGnBa2fply-55" value="&lt;font style=&quot;font-size: 16px;&quot;&gt;Генерация&lt;/font&gt;&lt;div style=&quot;font-size: 16px;&quot;&gt;&lt;font style=&quot;font-size: 16px;&quot;&gt;запроса к серверу&lt;/font&gt;&lt;/div&gt;" style="edgeLabel;html=1;align=center;verticalAlign=middle;resizable=0;points=[];" vertex="1" connectable="0" parent="HNpfUJ7Xd9dGnBa2fply-54">
          <mxGeometry x="-0.009" y="-1" relative="1" as="geometry">
            <mxPoint x="81" as="offset" />
          </mxGeometry>
        </mxCell>
        <mxCell id="HNpfUJ7Xd9dGnBa2fply-84" value="" style="html=1;points=[];perimeter=orthogonalPerimeter;outlineConnect=0;targetShapes=umlLifeline;portConstraint=eastwest;newEdgeStyle={&quot;edgeStyle&quot;:&quot;elbowEdgeStyle&quot;,&quot;elbow&quot;:&quot;vertical&quot;,&quot;curved&quot;:0,&quot;rounded&quot;:0};fontSize=16;" vertex="1" parent="aM9ryv3xv72pqoxQDRHE-5">
          <mxGeometry x="50" y="940" width="10" height="30" as="geometry" />
        </mxCell>
        <mxCell id="HNpfUJ7Xd9dGnBa2fply-85" value="" style="curved=1;endArrow=classic;html=1;rounded=0;" edge="1" parent="aM9ryv3xv72pqoxQDRHE-5" target="HNpfUJ7Xd9dGnBa2fply-84" source="aM9ryv3xv72pqoxQDRHE-6">
          <mxGeometry width="50" height="50" relative="1" as="geometry">
            <mxPoint x="55" y="900" as="sourcePoint" />
            <mxPoint x="65" y="940" as="targetPoint" />
            <Array as="points">
              <mxPoint x="80" y="900" />
              <mxPoint x="80" y="940" />
            </Array>
          </mxGeometry>
        </mxCell>
        <mxCell id="HNpfUJ7Xd9dGnBa2fply-86" value="&lt;span style=&quot;font-size: 16px;&quot;&gt;Отрисовка&lt;/span&gt;&lt;br&gt;&lt;div style=&quot;font-size: 16px;&quot;&gt;страницы товара&lt;/div&gt;" style="edgeLabel;html=1;align=center;verticalAlign=middle;resizable=0;points=[];" vertex="1" connectable="0" parent="HNpfUJ7Xd9dGnBa2fply-85">
          <mxGeometry x="-0.009" y="-1" relative="1" as="geometry">
            <mxPoint x="71" y="3" as="offset" />
          </mxGeometry>
        </mxCell>
        <mxCell id="aM9ryv3xv72pqoxQDRHE-7" value="Поисковый запрос" style="html=1;verticalAlign=bottom;endArrow=block;edgeStyle=elbowEdgeStyle;elbow=vertical;curved=0;rounded=0;fontSize=16;" parent="1" source="aM9ryv3xv72pqoxQDRHE-2" target="aM9ryv3xv72pqoxQDRHE-6" edge="1">
          <mxGeometry relative="1" as="geometry">
            <mxPoint x="195" y="130" as="sourcePoint" />
            <Array as="points">
              <mxPoint x="180" y="120" />
            </Array>
          </mxGeometry>
        </mxCell>
        <mxCell id="HNpfUJ7Xd9dGnBa2fply-11" value="Backend" style="shape=umlLifeline;perimeter=lifelinePerimeter;whiteSpace=wrap;html=1;container=0;dropTarget=0;collapsible=0;recursiveResize=0;outlineConnect=0;portConstraint=eastwest;newEdgeStyle={&quot;edgeStyle&quot;:&quot;elbowEdgeStyle&quot;,&quot;elbow&quot;:&quot;vertical&quot;,&quot;curved&quot;:0,&quot;rounded&quot;:0};fontSize=16;" vertex="1" parent="1">
          <mxGeometry x="440" y="40" width="100" height="1010" as="geometry" />
        </mxCell>
        <mxCell id="HNpfUJ7Xd9dGnBa2fply-12" value="" style="html=1;points=[];perimeter=orthogonalPerimeter;outlineConnect=0;targetShapes=umlLifeline;portConstraint=eastwest;newEdgeStyle={&quot;edgeStyle&quot;:&quot;elbowEdgeStyle&quot;,&quot;elbow&quot;:&quot;vertical&quot;,&quot;curved&quot;:0,&quot;rounded&quot;:0};fontSize=16;" vertex="1" parent="HNpfUJ7Xd9dGnBa2fply-11">
          <mxGeometry x="45" y="150" width="10" height="230" as="geometry" />
        </mxCell>
        <mxCell id="HNpfUJ7Xd9dGnBa2fply-31" value="" style="html=1;points=[];perimeter=orthogonalPerimeter;outlineConnect=0;targetShapes=umlLifeline;portConstraint=eastwest;newEdgeStyle={&quot;edgeStyle&quot;:&quot;elbowEdgeStyle&quot;,&quot;elbow&quot;:&quot;vertical&quot;,&quot;curved&quot;:0,&quot;rounded&quot;:0};fontSize=16;" vertex="1" parent="HNpfUJ7Xd9dGnBa2fply-11">
          <mxGeometry x="50" y="190" width="10" height="30" as="geometry" />
        </mxCell>
        <mxCell id="HNpfUJ7Xd9dGnBa2fply-32" value="" style="curved=1;endArrow=classic;html=1;rounded=0;" edge="1" parent="HNpfUJ7Xd9dGnBa2fply-11" source="HNpfUJ7Xd9dGnBa2fply-12" target="HNpfUJ7Xd9dGnBa2fply-31">
          <mxGeometry width="50" height="50" relative="1" as="geometry">
            <mxPoint x="70" y="150" as="sourcePoint" />
            <mxPoint x="75" y="190" as="targetPoint" />
            <Array as="points">
              <mxPoint x="80" y="150" />
              <mxPoint x="80" y="190" />
            </Array>
          </mxGeometry>
        </mxCell>
        <mxCell id="HNpfUJ7Xd9dGnBa2fply-33" value="&lt;font style=&quot;font-size: 16px;&quot;&gt;Генерация&lt;/font&gt;&lt;div style=&quot;font-size: 16px;&quot;&gt;&lt;font style=&quot;font-size: 16px;&quot;&gt;запроса к БД&lt;/font&gt;&lt;/div&gt;" style="edgeLabel;html=1;align=center;verticalAlign=middle;resizable=0;points=[];" vertex="1" connectable="0" parent="HNpfUJ7Xd9dGnBa2fply-32">
          <mxGeometry x="-0.009" y="-1" relative="1" as="geometry">
            <mxPoint x="61" y="3" as="offset" />
          </mxGeometry>
        </mxCell>
        <mxCell id="HNpfUJ7Xd9dGnBa2fply-39" value="" style="html=1;points=[];perimeter=orthogonalPerimeter;outlineConnect=0;targetShapes=umlLifeline;portConstraint=eastwest;newEdgeStyle={&quot;edgeStyle&quot;:&quot;elbowEdgeStyle&quot;,&quot;elbow&quot;:&quot;vertical&quot;,&quot;curved&quot;:0,&quot;rounded&quot;:0};fontSize=16;" vertex="1" parent="HNpfUJ7Xd9dGnBa2fply-11">
          <mxGeometry x="50" y="350" width="10" height="30" as="geometry" />
        </mxCell>
        <mxCell id="HNpfUJ7Xd9dGnBa2fply-40" value="" style="curved=1;endArrow=classic;html=1;rounded=0;" edge="1" parent="HNpfUJ7Xd9dGnBa2fply-11" source="HNpfUJ7Xd9dGnBa2fply-12" target="HNpfUJ7Xd9dGnBa2fply-39">
          <mxGeometry width="50" height="50" relative="1" as="geometry">
            <mxPoint x="60" y="310" as="sourcePoint" />
            <mxPoint x="65" y="350" as="targetPoint" />
            <Array as="points">
              <mxPoint x="80" y="310" />
              <mxPoint x="80" y="350" />
            </Array>
          </mxGeometry>
        </mxCell>
        <mxCell id="HNpfUJ7Xd9dGnBa2fply-41" value="&lt;font style=&quot;font-size: 16px;&quot;&gt;Генерация&lt;/font&gt;&lt;div style=&quot;font-size: 16px;&quot;&gt;страницы-результата&lt;/div&gt;" style="edgeLabel;html=1;align=center;verticalAlign=middle;resizable=0;points=[];" vertex="1" connectable="0" parent="HNpfUJ7Xd9dGnBa2fply-40">
          <mxGeometry x="-0.009" y="-1" relative="1" as="geometry">
            <mxPoint x="81" y="3" as="offset" />
          </mxGeometry>
        </mxCell>
        <mxCell id="HNpfUJ7Xd9dGnBa2fply-57" value="" style="html=1;points=[];perimeter=orthogonalPerimeter;outlineConnect=0;targetShapes=umlLifeline;portConstraint=eastwest;newEdgeStyle={&quot;edgeStyle&quot;:&quot;elbowEdgeStyle&quot;,&quot;elbow&quot;:&quot;vertical&quot;,&quot;curved&quot;:0,&quot;rounded&quot;:0};fontSize=16;" vertex="1" parent="HNpfUJ7Xd9dGnBa2fply-11">
          <mxGeometry x="45" y="650" width="10" height="230" as="geometry" />
        </mxCell>
        <mxCell id="HNpfUJ7Xd9dGnBa2fply-79" value="" style="html=1;points=[];perimeter=orthogonalPerimeter;outlineConnect=0;targetShapes=umlLifeline;portConstraint=eastwest;newEdgeStyle={&quot;edgeStyle&quot;:&quot;elbowEdgeStyle&quot;,&quot;elbow&quot;:&quot;vertical&quot;,&quot;curved&quot;:0,&quot;rounded&quot;:0};fontSize=16;" vertex="1" parent="HNpfUJ7Xd9dGnBa2fply-11">
          <mxGeometry x="50" y="850" width="10" height="30" as="geometry" />
        </mxCell>
        <mxCell id="HNpfUJ7Xd9dGnBa2fply-80" value="" style="curved=1;endArrow=classic;html=1;rounded=0;" edge="1" parent="HNpfUJ7Xd9dGnBa2fply-11" target="HNpfUJ7Xd9dGnBa2fply-79" source="HNpfUJ7Xd9dGnBa2fply-57">
          <mxGeometry width="50" height="50" relative="1" as="geometry">
            <mxPoint x="55" y="810" as="sourcePoint" />
            <mxPoint x="65" y="850" as="targetPoint" />
            <Array as="points">
              <mxPoint x="80" y="810" />
              <mxPoint x="80" y="850" />
            </Array>
          </mxGeometry>
        </mxCell>
        <mxCell id="HNpfUJ7Xd9dGnBa2fply-81" value="&lt;font style=&quot;font-size: 16px;&quot;&gt;Генерация&lt;/font&gt;&lt;div style=&quot;font-size: 16px;&quot;&gt;страницы товара&lt;/div&gt;" style="edgeLabel;html=1;align=center;verticalAlign=middle;resizable=0;points=[];" vertex="1" connectable="0" parent="HNpfUJ7Xd9dGnBa2fply-80">
          <mxGeometry x="-0.009" y="-1" relative="1" as="geometry">
            <mxPoint x="71" y="3" as="offset" />
          </mxGeometry>
        </mxCell>
        <mxCell id="HNpfUJ7Xd9dGnBa2fply-15" value="DB" style="shape=umlLifeline;perimeter=lifelinePerimeter;whiteSpace=wrap;html=1;container=0;dropTarget=0;collapsible=0;recursiveResize=0;outlineConnect=0;portConstraint=eastwest;newEdgeStyle={&quot;edgeStyle&quot;:&quot;elbowEdgeStyle&quot;,&quot;elbow&quot;:&quot;vertical&quot;,&quot;curved&quot;:0,&quot;rounded&quot;:0};fontSize=16;" vertex="1" parent="1">
          <mxGeometry x="640" y="40" width="100" height="1010" as="geometry" />
        </mxCell>
        <mxCell id="HNpfUJ7Xd9dGnBa2fply-16" value="" style="html=1;points=[];perimeter=orthogonalPerimeter;outlineConnect=0;targetShapes=umlLifeline;portConstraint=eastwest;newEdgeStyle={&quot;edgeStyle&quot;:&quot;elbowEdgeStyle&quot;,&quot;elbow&quot;:&quot;vertical&quot;,&quot;curved&quot;:0,&quot;rounded&quot;:0};fontSize=16;" vertex="1" parent="HNpfUJ7Xd9dGnBa2fply-15">
          <mxGeometry x="45" y="220" width="10" height="70" as="geometry" />
        </mxCell>
        <mxCell id="HNpfUJ7Xd9dGnBa2fply-35" value="" style="html=1;points=[];perimeter=orthogonalPerimeter;outlineConnect=0;targetShapes=umlLifeline;portConstraint=eastwest;newEdgeStyle={&quot;edgeStyle&quot;:&quot;elbowEdgeStyle&quot;,&quot;elbow&quot;:&quot;vertical&quot;,&quot;curved&quot;:0,&quot;rounded&quot;:0};fontSize=16;" vertex="1" parent="HNpfUJ7Xd9dGnBa2fply-15">
          <mxGeometry x="50" y="265" width="10" height="25" as="geometry" />
        </mxCell>
        <mxCell id="HNpfUJ7Xd9dGnBa2fply-36" value="" style="curved=1;endArrow=classic;html=1;rounded=0;" edge="1" parent="HNpfUJ7Xd9dGnBa2fply-15" source="HNpfUJ7Xd9dGnBa2fply-16" target="HNpfUJ7Xd9dGnBa2fply-35">
          <mxGeometry width="50" height="50" relative="1" as="geometry">
            <mxPoint x="70" y="220" as="sourcePoint" />
            <mxPoint x="75" y="260" as="targetPoint" />
            <Array as="points">
              <mxPoint x="80" y="220" />
              <mxPoint x="80" y="260" />
            </Array>
          </mxGeometry>
        </mxCell>
        <mxCell id="HNpfUJ7Xd9dGnBa2fply-37" value="&lt;span style=&quot;font-size: 16px;&quot;&gt;Формирование&lt;/span&gt;&lt;div&gt;&lt;span style=&quot;font-size: 16px;&quot;&gt;ответа&lt;/span&gt;&lt;/div&gt;" style="edgeLabel;html=1;align=center;verticalAlign=middle;resizable=0;points=[];" vertex="1" connectable="0" parent="HNpfUJ7Xd9dGnBa2fply-36">
          <mxGeometry x="-0.009" y="-1" relative="1" as="geometry">
            <mxPoint x="61" y="3" as="offset" />
          </mxGeometry>
        </mxCell>
        <mxCell id="HNpfUJ7Xd9dGnBa2fply-75" value="" style="html=1;points=[];perimeter=orthogonalPerimeter;outlineConnect=0;targetShapes=umlLifeline;portConstraint=eastwest;newEdgeStyle={&quot;edgeStyle&quot;:&quot;elbowEdgeStyle&quot;,&quot;elbow&quot;:&quot;vertical&quot;,&quot;curved&quot;:0,&quot;rounded&quot;:0};fontSize=16;" vertex="1" parent="HNpfUJ7Xd9dGnBa2fply-15">
          <mxGeometry x="45" y="720" width="10" height="70" as="geometry" />
        </mxCell>
        <mxCell id="HNpfUJ7Xd9dGnBa2fply-76" value="" style="html=1;points=[];perimeter=orthogonalPerimeter;outlineConnect=0;targetShapes=umlLifeline;portConstraint=eastwest;newEdgeStyle={&quot;edgeStyle&quot;:&quot;elbowEdgeStyle&quot;,&quot;elbow&quot;:&quot;vertical&quot;,&quot;curved&quot;:0,&quot;rounded&quot;:0};fontSize=16;" vertex="1" parent="HNpfUJ7Xd9dGnBa2fply-15">
          <mxGeometry x="50" y="765" width="10" height="25" as="geometry" />
        </mxCell>
        <mxCell id="HNpfUJ7Xd9dGnBa2fply-77" value="" style="curved=1;endArrow=classic;html=1;rounded=0;" edge="1" parent="HNpfUJ7Xd9dGnBa2fply-15" source="HNpfUJ7Xd9dGnBa2fply-75" target="HNpfUJ7Xd9dGnBa2fply-76">
          <mxGeometry width="50" height="50" relative="1" as="geometry">
            <mxPoint x="70" y="720" as="sourcePoint" />
            <mxPoint x="75" y="760" as="targetPoint" />
            <Array as="points">
              <mxPoint x="80" y="720" />
              <mxPoint x="80" y="760" />
            </Array>
          </mxGeometry>
        </mxCell>
        <mxCell id="HNpfUJ7Xd9dGnBa2fply-78" value="&lt;span style=&quot;font-size: 16px;&quot;&gt;Формирование&lt;/span&gt;&lt;div&gt;&lt;span style=&quot;font-size: 16px;&quot;&gt;ответа&lt;/span&gt;&lt;/div&gt;" style="edgeLabel;html=1;align=center;verticalAlign=middle;resizable=0;points=[];" vertex="1" connectable="0" parent="HNpfUJ7Xd9dGnBa2fply-77">
          <mxGeometry x="-0.009" y="-1" relative="1" as="geometry">
            <mxPoint x="61" y="3" as="offset" />
          </mxGeometry>
        </mxCell>
        <mxCell id="HNpfUJ7Xd9dGnBa2fply-30" value="get-запрос" style="html=1;verticalAlign=bottom;endArrow=block;edgeStyle=elbowEdgeStyle;elbow=vertical;curved=0;rounded=0;fontSize=16;" edge="1" parent="1" target="HNpfUJ7Xd9dGnBa2fply-12">
          <mxGeometry relative="1" as="geometry">
            <mxPoint x="300" y="180" as="sourcePoint" />
            <Array as="points">
              <mxPoint x="400" y="190" />
            </Array>
            <mxPoint x="480" y="190" as="targetPoint" />
          </mxGeometry>
        </mxCell>
        <mxCell id="HNpfUJ7Xd9dGnBa2fply-34" value="sql-запрос" style="html=1;verticalAlign=bottom;endArrow=block;edgeStyle=elbowEdgeStyle;elbow=vertical;curved=0;rounded=0;fontSize=16;" edge="1" parent="1" source="HNpfUJ7Xd9dGnBa2fply-31" target="HNpfUJ7Xd9dGnBa2fply-16">
          <mxGeometry relative="1" as="geometry">
            <mxPoint x="510" y="240" as="sourcePoint" />
            <Array as="points">
              <mxPoint x="625" y="260" />
            </Array>
            <mxPoint x="700" y="260" as="targetPoint" />
          </mxGeometry>
        </mxCell>
        <mxCell id="HNpfUJ7Xd9dGnBa2fply-38" value="Таблица-ответ" style="html=1;verticalAlign=bottom;endArrow=open;dashed=1;endSize=8;edgeStyle=elbowEdgeStyle;elbow=vertical;curved=0;rounded=0;fontSize=16;" edge="1" parent="1" source="HNpfUJ7Xd9dGnBa2fply-16" target="HNpfUJ7Xd9dGnBa2fply-12">
          <mxGeometry relative="1" as="geometry">
            <mxPoint x="440" y="330" as="targetPoint" />
            <Array as="points">
              <mxPoint x="535" y="330" />
            </Array>
            <mxPoint x="600" y="330" as="sourcePoint" />
          </mxGeometry>
        </mxCell>
        <mxCell id="HNpfUJ7Xd9dGnBa2fply-42" value="Страница результатов&lt;div&gt;поиска&lt;/div&gt;" style="html=1;verticalAlign=bottom;endArrow=open;dashed=1;endSize=8;edgeStyle=elbowEdgeStyle;elbow=vertical;curved=0;rounded=0;fontSize=16;" edge="1" parent="1" source="HNpfUJ7Xd9dGnBa2fply-12" target="aM9ryv3xv72pqoxQDRHE-6">
          <mxGeometry relative="1" as="geometry">
            <mxPoint x="260" y="420" as="targetPoint" />
            <Array as="points">
              <mxPoint x="300" y="420" />
            </Array>
            <mxPoint x="450" y="420" as="sourcePoint" />
          </mxGeometry>
        </mxCell>
        <mxCell id="HNpfUJ7Xd9dGnBa2fply-48" value="Вывод страницы-ответа" style="html=1;verticalAlign=bottom;endArrow=open;dashed=1;endSize=8;edgeStyle=elbowEdgeStyle;elbow=vertical;curved=0;rounded=0;fontSize=16;" edge="1" parent="1" source="aM9ryv3xv72pqoxQDRHE-6" target="aM9ryv3xv72pqoxQDRHE-2">
          <mxGeometry relative="1" as="geometry">
            <mxPoint x="100" y="510" as="targetPoint" />
            <Array as="points">
              <mxPoint x="140" y="510" />
            </Array>
            <mxPoint x="290" y="510" as="sourcePoint" />
          </mxGeometry>
        </mxCell>
        <mxCell id="HNpfUJ7Xd9dGnBa2fply-52" value="Запрос выбранного&lt;div&gt;товара&lt;/div&gt;" style="html=1;verticalAlign=bottom;endArrow=block;edgeStyle=elbowEdgeStyle;elbow=vertical;curved=0;rounded=0;fontSize=16;" edge="1" parent="1">
          <mxGeometry relative="1" as="geometry">
            <mxPoint x="100" y="620" as="sourcePoint" />
            <Array as="points">
              <mxPoint x="215" y="620" />
            </Array>
            <mxPoint x="285" y="620" as="targetPoint" />
          </mxGeometry>
        </mxCell>
        <mxCell id="HNpfUJ7Xd9dGnBa2fply-58" value="get-запрос" style="html=1;verticalAlign=bottom;endArrow=block;edgeStyle=elbowEdgeStyle;elbow=vertical;curved=0;rounded=0;fontSize=16;" edge="1" parent="1" source="HNpfUJ7Xd9dGnBa2fply-53" target="HNpfUJ7Xd9dGnBa2fply-57">
          <mxGeometry relative="1" as="geometry">
            <mxPoint x="320" y="690" as="sourcePoint" />
            <Array as="points">
              <mxPoint x="430" y="690" />
            </Array>
            <mxPoint x="480" y="690" as="targetPoint" />
          </mxGeometry>
        </mxCell>
        <mxCell id="HNpfUJ7Xd9dGnBa2fply-67" value="" style="html=1;points=[];perimeter=orthogonalPerimeter;outlineConnect=0;targetShapes=umlLifeline;portConstraint=eastwest;newEdgeStyle={&quot;edgeStyle&quot;:&quot;elbowEdgeStyle&quot;,&quot;elbow&quot;:&quot;vertical&quot;,&quot;curved&quot;:0,&quot;rounded&quot;:0};fontSize=16;" vertex="1" parent="1">
          <mxGeometry x="490" y="730" width="10" height="30" as="geometry" />
        </mxCell>
        <mxCell id="HNpfUJ7Xd9dGnBa2fply-68" value="" style="curved=1;endArrow=classic;html=1;rounded=0;" edge="1" parent="1" target="HNpfUJ7Xd9dGnBa2fply-67" source="HNpfUJ7Xd9dGnBa2fply-57">
          <mxGeometry width="50" height="50" relative="1" as="geometry">
            <mxPoint x="495" y="690" as="sourcePoint" />
            <mxPoint x="515" y="730" as="targetPoint" />
            <Array as="points">
              <mxPoint x="520" y="690" />
              <mxPoint x="520" y="730" />
            </Array>
          </mxGeometry>
        </mxCell>
        <mxCell id="HNpfUJ7Xd9dGnBa2fply-69" value="&lt;font style=&quot;font-size: 16px;&quot;&gt;Генерация&lt;/font&gt;&lt;div style=&quot;font-size: 16px;&quot;&gt;&lt;font style=&quot;font-size: 16px;&quot;&gt;запроса к БД&lt;/font&gt;&lt;/div&gt;" style="edgeLabel;html=1;align=center;verticalAlign=middle;resizable=0;points=[];" vertex="1" connectable="0" parent="HNpfUJ7Xd9dGnBa2fply-68">
          <mxGeometry x="-0.009" y="-1" relative="1" as="geometry">
            <mxPoint x="61" y="3" as="offset" />
          </mxGeometry>
        </mxCell>
        <mxCell id="HNpfUJ7Xd9dGnBa2fply-70" value="sql-запрос" style="html=1;verticalAlign=bottom;endArrow=block;edgeStyle=elbowEdgeStyle;elbow=vertical;curved=0;rounded=0;fontSize=16;" edge="1" parent="1" source="HNpfUJ7Xd9dGnBa2fply-67" target="HNpfUJ7Xd9dGnBa2fply-75">
          <mxGeometry relative="1" as="geometry">
            <mxPoint x="510" y="740" as="sourcePoint" />
            <Array as="points">
              <mxPoint x="625" y="760" />
            </Array>
            <mxPoint x="685" y="760" as="targetPoint" />
          </mxGeometry>
        </mxCell>
        <mxCell id="HNpfUJ7Xd9dGnBa2fply-83" value="Таблица-ответ" style="html=1;verticalAlign=bottom;endArrow=open;dashed=1;endSize=8;edgeStyle=elbowEdgeStyle;elbow=vertical;curved=0;rounded=0;fontSize=16;" edge="1" parent="1" source="HNpfUJ7Xd9dGnBa2fply-75" target="HNpfUJ7Xd9dGnBa2fply-57">
          <mxGeometry relative="1" as="geometry">
            <mxPoint x="495" y="830" as="targetPoint" />
            <Array as="points">
              <mxPoint x="535" y="830" />
            </Array>
            <mxPoint x="685" y="830" as="sourcePoint" />
          </mxGeometry>
        </mxCell>
        <mxCell id="HNpfUJ7Xd9dGnBa2fply-87" value="Страница товара" style="html=1;verticalAlign=bottom;endArrow=open;dashed=1;endSize=8;edgeStyle=elbowEdgeStyle;elbow=vertical;curved=0;rounded=0;fontSize=16;" edge="1" parent="1" source="HNpfUJ7Xd9dGnBa2fply-57" target="aM9ryv3xv72pqoxQDRHE-6">
          <mxGeometry relative="1" as="geometry">
            <mxPoint x="295" y="920" as="targetPoint" />
            <Array as="points">
              <mxPoint x="300" y="920" />
            </Array>
            <mxPoint x="485" y="920" as="sourcePoint" />
          </mxGeometry>
        </mxCell>
        <mxCell id="HNpfUJ7Xd9dGnBa2fply-89" value="Вывод страницы товара" style="html=1;verticalAlign=bottom;endArrow=open;dashed=1;endSize=8;edgeStyle=elbowEdgeStyle;elbow=vertical;curved=0;rounded=0;fontSize=16;" edge="1" parent="1" source="aM9ryv3xv72pqoxQDRHE-6" target="aM9ryv3xv72pqoxQDRHE-2">
          <mxGeometry relative="1" as="geometry">
            <mxPoint x="150" y="1010" as="targetPoint" />
            <Array as="points">
              <mxPoint x="195" y="1010" />
            </Array>
            <mxPoint x="340" y="1010" as="sourcePoint" />
          </mxGeometry>
        </mxCell>
      </root>
    </mxGraphModel>
  </diagram>
</mxfile>
